<?xml version="1.0" standalone="no"?>
<!DOCTYPE svg PUBLIC "-//W3C//DTD SVG 20010904//EN"
 "http://www.w3.org/TR/2001/REC-SVG-20010904/DTD/svg10.dtd">
<svg version="1.0" xmlns="http://www.w3.org/2000/svg"
 width="119.000000pt" height="125.000000pt" viewBox="0 0 119.000000 125.000000"
 preserveAspectRatio="xMidYMid meet">
<metadata>
Created by potrace 1.16, written by Peter Selinger 2001-2019
</metadata>
<g transform="translate(0.000000,125.000000) scale(0.100000,-0.100000)"
fill="#ff0f1f" stroke="none">
<path style="fill:#ff0f1f;" d="M576 1158 c-8 -13 -27 -53 -42 -90 -16 -40 -35 -70 -46 -74 -11 -3
-45 11 -91 40 -123 77 -151 58 -117 -75 30 -117 23 -128 -90 -130 -75 -1 -101
-10 -111 -37 -10 -25 -3 -33 94 -118 26 -23 47 -47 47 -54 0 -7 -21 -31 -47
-54 -97 -85 -104 -93 -94 -118 10 -27 36 -36 111 -37 113 -2 120 -13 90 -130
-34 -133 -6 -152 117 -75 46 28 80 43 91 40 11 -4 32 -39 52 -87 56 -132 84
-132 140 0 20 48 41 83 52 87 11 3 45 -12 91 -40 123 -77 151 -58 117 75 -30
117 -23 128 90 130 75 1 101 10 111 37 10 25 3 33 -94 118 -26 23 -47 47 -47
54 0 7 21 31 47 54 97 85 104 93 94 118 -10 27 -36 36 -111 37 -113 2 -120 13
-90 130 34 133 6 152 -117 75 -46 -29 -80 -43 -91 -40 -11 4 -30 34 -46 74
-36 88 -52 112 -76 112 -11 0 -26 -10 -34 -22z m154 -269 c187 -83 233 -328
88 -476 -183 -186 -501 -55 -502 207 0 214 218 355 414 269z"/>
<path d="M539 834 c-98 -30 -170 -145 -155 -246 24 -157 203 -244 339 -165 57
34 103 100 113 162 15 106 -57 220 -159 250 -61 18 -78 18 -138 -1z"/>
</g>
</svg>
